<svg width="393" height="5458" viewBox="0 0 393 5458" fill="none" xmlns="http://www.w3.org/2000/svg">
<path d="M-73.5 26L-40.7336 80.3194C2.77206 152.442 97.548 173.879 167.858 127.501L177.604 121.071C195.474 109.283 216.411 103 237.819 103H241.428C286.52 103 326.513 131.958 340.587 174.797C353.836 215.128 341.339 259.465 308.977 286.939L306.102 289.38C281.029 310.666 247.745 319.613 215.379 313.767L180.6 307.486C173.726 306.245 166.709 305.993 159.764 306.74L158.761 306.848C122.138 310.783 94.3713 341.694 94.3713 378.527V378.527C94.3713 410.285 115.152 438.302 145.543 447.518L148.899 448.535C195.043 462.528 217.038 515.076 194.621 557.766L188.113 570.159C161.862 620.151 194.74 680.792 250.958 686.071V686.071C264.429 687.336 277.418 692.069 288.567 699.734V699.734C319.027 720.677 331.536 759.791 318.629 794.429L316.982 798.851C300.406 843.338 249.003 863.74 206.431 842.728V842.728C187.93 833.596 166.477 831.641 147.499 839.732C141.14 842.443 134.543 845.515 128.543 848.802C118.921 854.073 111.446 862.29 104.946 871.128L103.509 873.083C74.0559 913.129 66.0523 965.05 82.0776 1012.11L88.3436 1030.51C104.749 1078.68 144.921 1114.93 194.522 1126.32L213.165 1130.6C268.981 1143.42 308.542 1193.09 308.542 1250.36V1250.36C308.542 1295.69 283.58 1337.35 243.6 1358.72L179.081 1393.21C126.932 1421.09 94.3713 1475.42 94.3713 1534.56V1534.56C94.3713 1580.9 114.43 1624.97 149.375 1655.41L170.076 1673.44C175.083 1677.8 180.496 1681.68 186.24 1685.01V1685.01C250.609 1722.36 256.299 1813.16 197.096 1858.26L119.856 1917.1C88.4726 1941 78.9254 1984.07 97.2665 2019V2019C117.489 2057.51 164.558 2073.12 203.785 2054.32L214.481 2049.19C279.593 2017.99 353.913 2069.52 347.523 2141.44L345.915 2159.54C341.604 2208.06 303.628 2246.79 255.2 2252.04V2252.04C180.564 2260.14 139.88 2343.3 179.286 2407.2L205.196 2449.21C230.943 2490.96 231.681 2543.48 207.118 2585.94L168.962 2651.89C133.119 2713.85 159.611 2793.2 225.485 2821.19V2821.19C324.716 2863.37 321.349 3005.16 220.227 3042.57L198.589 3050.58C141.934 3071.54 107.576 3129.18 116.09 3188.99L132.929 3307.27C136.994 3335.82 132.799 3364.95 120.839 3391.2V3391.2C93.0662 3452.15 108.748 3524.12 159.365 3567.99L261.32 3656.37C301.605 3691.29 322.583 3743.49 317.666 3796.57L309.917 3880.23C305.125 3931.96 257.002 3968.45 205.897 3959.1V3959.1C151.56 3949.16 101.5 3990.89 101.5 4046.13V4199.62C101.5 4246.5 126.639 4289.77 167.357 4312.99V4312.99C233.84 4350.9 253.581 4437.62 210.058 4500.58L195.769 4521.25C167.662 4561.9 160.843 4613.6 177.448 4660.15L248.31 4858.82C273.325 4928.95 246.827 5007.08 184.309 5047.52V5047.52C126.945 5084.63 99.3562 5153.98 115.555 5220.36L186 5509" stroke="url(#paint0_linear_166_492)" stroke-width="100"/>
<defs>
<linearGradient id="paint0_linear_166_492" x1="159.5" y1="-7.5" x2="2027.28" y2="4695.02" gradientUnits="userSpaceOnUse">
<stop offset="0.0209763" stop-color="#26E9AF"/>
<stop offset="0.0694138" stop-color="#8A3EA6"/>
<stop offset="0.119778" stop-color="#AF4AD4"/>
<stop offset="0.190285" stop-color="#181818"/>
<stop offset="0.252964" stop-color="#AF4AD4"/>
<stop offset="0.32015" stop-color="#26E9AF"/>
<stop offset="0.457768"/>
<stop offset="0.630142" stop-color="#198F6C"/>
<stop offset="0.79131" stop-color="#26E9AF"/>
<stop offset="0.996122"/>
</linearGradient>
</defs>
</svg>
