<svg width="825" height="5416" viewBox="0 0 825 5416" fill="none" xmlns="http://www.w3.org/2000/svg">
<path d="M-68 29L-16.1568 140.526L17.5 250.5C65.2058 356.089 211.716 365.01 271.88 265.989L315.105 194.848C349.19 138.749 410.076 104.5 475.718 104.5H603.83C653.409 104.5 697.943 134.824 716.11 180.954C732.891 223.562 724.109 271.998 693.436 306.001L684.468 315.943C640.71 364.455 635.608 436.531 672.098 490.723L739.284 590.502C762.538 625.038 761.76 670.418 737.334 704.136C708 744.631 653.117 756.972 609.272 732.933L391.017 613.272C335.896 583.051 267.335 593.741 224.031 639.308C210.239 653.822 201.136 675.507 195.13 698.028C179.073 758.233 201.639 820.204 235.77 872.334V872.334C273.096 929.343 327.339 973.231 390.883 997.836L504.921 1041.99C547.102 1058.33 596.592 1065.29 626.582 1099.15C652.37 1128.27 660.904 1171.39 642.722 1210.23C623.841 1250.57 580.976 1274 536.829 1268.11L336.48 1241.4C255.476 1230.6 183.5 1293.61 183.5 1375.33C183.5 1440.14 229.517 1495.83 293.168 1508.04L356.243 1520.13C488.078 1545.42 542.05 1616.14 491.5 1740.5L486.062 1754.62C461.014 1819.64 489.097 1893.08 551.138 1924.8L576.758 1937.9C656.364 1978.6 664.174 2089.34 591.069 2140.81V2140.81C557.359 2164.55 513.753 2169.11 475.861 2152.86L411.5 2125.26C297.308 2076.3 168.022 2150.36 152.492 2273.63V2273.63C146.704 2319.57 158.179 2366.02 184.691 2403.97L213.405 2445.08C242.061 2486.11 280.021 2519.77 324.181 2543.32L563.711 2671.03C619.213 2700.62 649.772 2762.22 639.756 2824.31L623.709 2923.8C614.405 2981.49 549.003 3010.71 499.824 2979.15V2979.15C423.845 2930.4 337.023 3023.56 391.002 3095.92L468.21 3199.42C506.5 3250.75 490.077 3324.13 433.559 3354.24L378.272 3383.69C261.604 3445.85 267.926 3615.14 388.906 3668.42L589.795 3756.89C654.158 3785.23 697.451 3846.98 702.16 3917.15L705.205 3962.52C712.434 4070.25 611.096 4152.84 507.04 4124.03V4124.03C440.503 4105.6 369.747 4132.89 332.82 4191.23L307.285 4231.57C249.433 4322.96 266.216 4442.8 346.95 4514.78L637.955 4774.25C694.797 4824.94 713.111 4906.16 683.518 4976.33L666.658 5016.31C626.453 5111.65 503.346 5137.38 428.32 5066.13V5066.13C359.969 5001.22 249.166 5015.88 200.042 5096.33L-55 5514" stroke="url(#paint0_linear_166_461)" stroke-width="136"/>
<defs>
<linearGradient id="paint0_linear_166_461" x1="400.5" y1="5422.5" x2="-64.6246" y2="20.045" gradientUnits="userSpaceOnUse">
<stop offset="0.02" stop-color="#181818"/>
<stop offset="0.195" stop-color="#26E9AF"/>
<stop offset="0.375" stop-color="#181818"/>
<stop offset="0.51285" stop-color="#26E9AF"/>
<stop offset="0.593822" stop-color="#AF4AD4"/>
<stop offset="0.724514" stop-color="#181818"/>
<stop offset="0.825375" stop-color="#4F2A5D"/>
<stop offset="0.91345" stop-color="#AF4AD4"/>
<stop offset="1" stop-color="#26E9AF"/>
</linearGradient>
</defs>
</svg>
