<svg width="1497" height="4092" viewBox="0 0 1497 4092" fill="none" xmlns="http://www.w3.org/2000/svg">
<g filter="url(#filter0_d_164_430)">
<path d="M-89 2.5L-43.1121 41.8C-6.49734 73.1582 26.8914 109.271 38.8971 155.96C43.2026 172.703 46.9492 190.434 50.6758 207.816C62.9462 265.051 75 323.599 75 382.134V382.134C75 440.669 84.8254 500.447 116.106 549.924C127.038 567.214 139.589 583.33 155.184 597.413L174.174 614.563C214.922 651.361 264.827 676.507 318.648 687.358L357.665 695.225C397.469 703.25 438.803 698.091 475.413 680.528L495.216 671.028C539.978 649.554 570.813 606.864 577.13 557.621C582.176 518.288 571.055 478.589 546.31 447.602L518.759 413.102C470.306 352.427 484.459 263.237 549.316 220.542C585.169 196.939 630.263 192.251 670.205 207.974L742.926 236.599C775.27 249.331 809.72 255.867 844.479 255.867H881.078C925.288 255.867 968.762 244.542 1007.35 222.972C1054 196.896 1107.58 185.903 1160.73 191.5L1170.97 192.578C1210.34 196.724 1248.3 209.605 1282.06 230.28C1326.35 257.397 1361.74 296.879 1383.86 343.86L1388.7 354.122C1407.78 394.642 1417.67 438.879 1417.67 483.668V510.936C1417.67 533.909 1414.04 556.738 1406.89 578.573L1404.76 585.089C1386.92 639.627 1346.74 684.012 1294.24 707.177C1241.51 730.444 1181.35 730.096 1128.89 706.22L1052.97 671.663C980.762 638.801 895.931 652.02 837.15 705.293V705.293C777.522 759.333 770.617 851.455 816.783 917.367C817.818 918.845 818.87 920.337 819.939 921.844L836.73 945.522C856.171 972.935 883.045 994.216 914.184 1006.86C959.215 1025.13 1009.8 1024 1053.96 1003.73L1149.86 959.701C1210.97 931.646 1282.91 942.507 1333.01 987.355C1376.53 1026.31 1396.84 1084.98 1386.72 1142.51L1382.86 1164.45C1369.95 1237.83 1318.95 1298.79 1248.99 1324.45L1218.99 1335.46C1165.25 1355.17 1105.22 1346.8 1058.93 1313.13L1053.48 1309.17C996.068 1267.41 918.193 1267.77 861.165 1310.05C761.796 1383.71 619.835 1323.73 603.383 1201.14L593.59 1128.16C592.236 1118.07 590.135 1108.09 587.305 1098.31L571.495 1043.67C553.749 982.342 510.018 931.872 451.841 905.578C409.57 886.473 362.308 881.347 316.924 890.944L284.636 897.771C243.09 906.557 205.667 928.963 178.303 961.435C149.333 995.812 133.445 1039.32 133.445 1084.28V1110.97C133.445 1170.05 153.281 1227.42 189.773 1273.88L291.798 1398.69C340.795 1458.63 361.582 1536.78 348.843 1613.14L336.636 1686.31C324.122 1761.32 362.8 1835.54 431.445 1868.25V1868.25C485.19 1893.86 548.402 1889.58 598.2 1856.96L691.066 1796.11C730.002 1770.6 773.425 1752.71 819.03 1743.4L913.116 1724.18C1002.66 1705.88 1095.78 1725.53 1170.3 1778.43V1778.43C1202.5 1801.29 1230.33 1829.74 1252.49 1862.43L1285.85 1911.67C1303.22 1937.3 1312.5 1967.55 1312.5 1998.51V1998.51C1312.5 2053.88 1282.93 2105.03 1234.96 2132.67L1226.27 2137.67C1151.43 2180.78 1056.08 2161.58 1003.54 2093.04V2093.04C962.282 2039.22 893.235 2014.39 827.196 2029.79L685.913 2062.73C616.717 2078.86 557.228 2122.79 521.459 2184.19L507.613 2207.95C485.597 2245.74 477.789 2290.14 485.596 2333.17V2333.17C491.109 2363.57 504.2 2392.08 523.657 2416.07L596.846 2506.31C663.032 2587.92 758.24 2640.74 862.513 2653.7L1025.05 2673.9C1135.83 2687.66 1218.99 2781.8 1218.99 2893.43V2893.43C1218.99 3064.37 1033.39 3170.72 885.909 3084.29L548.816 2886.73C464.712 2837.44 356.47 2868.86 311.832 2955.53L284.373 3008.84C240.276 3094.45 299.976 3196.9 396.203 3200.74V3200.74C505.84 3205.11 562.363 3333.78 491.42 3417.48L479.861 3431.12C394.368 3531.99 482.963 3684.33 612.915 3659.91L923.979 3601.45C1052.05 3577.38 1177.42 3654.63 1213.5 3779.85L1215.6 3787.12C1236.79 3860.64 1224.65 3939.75 1182.41 4003.55L1058.93 4190" stroke="url(#paint0_linear_164_430)" stroke-width="136"/>
</g>
<defs>
<filter id="filter0_d_164_430" x="-144.333" y="-51.2475" width="1641.11" height="4298.89" filterUnits="userSpaceOnUse" color-interpolation-filters="sRGB">
<feFlood flood-opacity="0" result="BackgroundImageFix"/>
<feColorMatrix in="SourceAlpha" type="matrix" values="0 0 0 0 0 0 0 0 0 0 0 0 0 0 0 0 0 0 127 0" result="hardAlpha"/>
<feOffset dy="9"/>
<feGaussianBlur stdDeviation="5.55"/>
<feComposite in2="hardAlpha" operator="out"/>
<feColorMatrix type="matrix" values="0 0 0 0 0 0 0 0 0 0 0 0 0 0 0 0 0 0 0.42 0"/>
<feBlend mode="normal" in2="BackgroundImageFix" result="effect1_dropShadow_164_430"/>
<feBlend mode="normal" in="SourceGraphic" in2="effect1_dropShadow_164_430" result="shape"/>
</filter>
<linearGradient id="paint0_linear_164_430" x1="821" y1="4095.5" x2="821" y2="3.00006" gradientUnits="userSpaceOnUse">
<stop offset="0.01" stop-color="#181818"/>
<stop offset="0.147567" stop-color="#26E9AF"/>
<stop offset="0.300831" stop-color="#181818"/>
<stop offset="0.442191" stop-color="#26E9AF"/>
<stop offset="0.556767" stop-color="#AF4AD4"/>
<stop offset="0.669855" stop-color="#181818"/>
<stop offset="0.774015" stop-color="#A951D2"/>
<stop offset="0.873711" stop-color="#AF4AD4"/>
<stop offset="0.983823" stop-color="#26E9AF"/>
</linearGradient>
</defs>
</svg>
