<svg width="393" height="512" viewBox="0 0 393 512" fill="none" xmlns="http://www.w3.org/2000/svg">
<path id="animated-line" d="M-158 461.714H-51.6021C-15.7937 461.714 15.9125 438.579 26.8383 404.478V404.478C41.6678 358.194 93.1405 334.745 137.795 353.932L191.779 377.127C225.779 391.736 265.364 380.72 286.93 350.649V350.649C317.605 307.877 298.532 247.632 248.831 230.306L208.861 216.373C171.884 203.483 148.9 166.552 153.665 127.684V127.684C158.041 91.9903 184.853 63.1478 220.133 56.1824L239.417 52.3752C246.455 50.9856 253.613 50.2857 260.788 50.2857H279.674C324.877 50.2857 369.495 60.5006 410.195 80.167L535.5 140.714" stroke="url(#paint0_linear_131_362)" stroke-width="100" stroke-linecap="round"/>
<defs>
<linearGradient id="paint0_linear_131_362" x1="-2.5928" y1="73.9627" x2="408.467" y2="171.82" gradientUnits="userSpaceOnUse">
<stop offset="0.176846" stop-color="#26E9AF"/>
<stop offset="0.826846" stop-color="#AF4AD4"/>
</linearGradient>
</defs>
</svg>
