<svg width="1512" height="656" viewBox="0 0 1512 656" fill="none" xmlns="http://www.w3.org/2000/svg">
<path id="animated-line" d="M-71.9248 564.993L50.0947 585.304C85.2898 591.162 121.43 584.827 152.534 567.346V567.346C211.305 534.315 242.34 467.378 229.577 401.181L228.228 394.185C223.487 369.597 213.261 346.395 198.311 326.307L168.382 286.092C138.137 245.453 133.089 191.155 155.115 145.535V145.535C172.843 108.818 206.287 81.8994 245.981 72.5786L250.518 71.5132C292.064 61.7575 335.728 73.6093 366.64 103.032V103.032C385.317 120.809 398.114 143.869 403.318 169.123L417.914 239.948C425.195 275.281 438.614 309.128 459.073 338.841C465.991 348.887 473.66 359.762 481.589 370.544C512.914 413.137 561.321 436.796 613.338 446.265L632.21 449.701C706.088 463.149 782.323 448.403 845.857 408.374L862.739 397.738C883.175 384.863 905.347 374.975 928.581 368.375L945.345 363.614C986.062 352.048 1029.4 353.704 1069.11 368.342L1075.36 370.643C1089.18 375.739 1102.2 382.793 1114.02 391.591L1145.72 415.188C1183.33 443.185 1235.11 442.198 1271.63 412.788V412.788C1303.2 387.356 1316.88 345.746 1306.57 306.537L1298.48 275.783C1278.92 201.447 1317.97 124.216 1389.43 95.9068L1404.6 89.8989C1458.16 68.679 1518.83 75.9825 1565.82 109.31L1595.48 130.336" stroke="url(#paint0_linear_131_294)" stroke-width="136" stroke-linecap="round"/>
<defs>
<linearGradient id="paint0_linear_131_294" x1="-9.97479" y1="100.948" x2="1160.27" y2="866.542" gradientUnits="userSpaceOnUse">
<stop offset="0.176846" stop-color="#26E9AF"/>
<stop offset="0.826846" stop-color="#AF4AD4"/>
</linearGradient>
</defs>
</svg>
