<svg width="834" height="530" viewBox="0 0 834 530" fill="none" xmlns="http://www.w3.org/2000/svg">
<path id="animated-line" d="M-39.7126 457.875L-24.8617 460.344C7.25923 465.682 40.1545 457.438 65.9601 437.58V437.58C100.453 411.037 117.426 367.587 110.058 324.692L102.493 280.651C95.2995 238.773 109.209 196.041 139.676 166.423V166.423C196.86 110.831 290.262 119.925 335.692 185.472C373.369 239.831 417.044 302.695 453.132 354.221C492.06 409.803 567.285 417.22 617.32 371.381V371.381C655.064 336.803 666.491 281.976 645.705 235.198L638.8 219.661C613.686 163.145 641.347 97.1476 699.252 75.4273V75.4273C725.386 65.6244 754.309 66.3761 779.899 77.5233L880.928 121.533" stroke="url(#paint0_linear_131_327)" stroke-width="136" stroke-linecap="round"/>
<defs>
<linearGradient id="paint0_linear_131_327" x1="-5.50743" y1="98.7927" x2="752.095" y2="452.446" gradientUnits="userSpaceOnUse">
<stop offset="0.176846" stop-color="#26E9AF"/>
<stop offset="0.826846" stop-color="#AF4AD4"/>
</linearGradient>
</defs>
</svg>
