<svg width="1479" height="800" viewBox="0 0 1479 800" fill="none" xmlns="http://www.w3.org/2000/svg">
<path d="M-122.85 58.0563L-78.7864 118.743C-45.5756 164.483 -16.4195 213.034 8.34987 263.843L56.9578 363.552C79.328 409.439 110.297 450.607 148.184 484.822L167.174 501.972C207.922 538.77 257.827 563.916 311.648 574.767L350.665 582.634C390.469 590.659 431.803 585.5 468.413 567.937L488.216 558.437C532.978 536.963 563.813 494.274 570.131 445.03V445.03C575.176 405.697 564.055 365.999 539.31 335.011L511.759 300.511C463.306 239.836 477.459 150.646 542.316 107.951V107.951C578.169 84.3485 623.263 79.6604 663.205 95.3828L735.926 124.008C768.27 136.74 802.72 143.276 837.479 143.276H874.078C918.288 143.276 961.762 131.951 1000.35 110.381V110.381C1047 84.3055 1100.58 73.3117 1153.73 78.9091L1163.97 79.9867C1203.34 84.1335 1241.3 97.0138 1275.06 117.689V117.689C1319.35 144.806 1354.74 184.288 1376.86 231.269L1381.7 241.531C1400.78 282.052 1410.67 326.288 1410.67 371.077V398.345C1410.67 421.318 1407.04 444.147 1399.89 465.982L1397.76 472.498C1379.92 527.036 1339.74 571.421 1287.24 594.586V594.586C1234.51 617.853 1174.35 617.505 1121.89 593.629L1045.97 559.073C973.762 526.21 888.931 539.429 830.15 592.703V592.703C780.451 637.744 756.82 704.813 767.308 771.06L784.875 882.024" stroke="url(#paint0_linear_131_435)" stroke-width="136" stroke-linecap="round"/>
<defs>
<linearGradient id="paint0_linear_131_435" x1="5.25016" y1="89.481" x2="545.268" y2="996.538" gradientUnits="userSpaceOnUse">
<stop stop-color="#26E9AF"/>
<stop offset="0.503528" stop-color="#AF4AD4"/>
</linearGradient>
</defs>
</svg>
