<svg width="388" height="566" viewBox="0 0 388 566" fill="none" xmlns="http://www.w3.org/2000/svg">
<path d="M-78.5 26L-45.7336 80.3194C-2.22794 152.442 92.548 173.879 162.858 127.501L172.604 121.071C190.474 109.283 211.411 103 232.819 103H236.428C281.52 103 321.513 131.958 335.587 174.797V174.797C348.836 215.128 336.338 259.465 303.977 286.939L301.102 289.38C276.029 310.666 242.745 319.613 210.379 313.767L165.236 305.614C133.895 299.954 102.693 316.209 89.3713 345.137V345.137C72.9814 380.726 89.0639 422.833 125.006 438.435L212.667 476.486C263.549 498.573 285.76 558.617 261.5 608.5V608.5" stroke="url(#paint0_linear_132_512)" stroke-width="100"/>
<defs>
<linearGradient id="paint0_linear_132_512" x1="1.25768" y1="45.2207" x2="463.678" y2="378.324" gradientUnits="userSpaceOnUse">
<stop stop-color="#26E9AF"/>
<stop offset="0.604652" stop-color="#AF4AD4"/>
</linearGradient>
</defs>
</svg>
