<svg width="393" height="1198" viewBox="0 0 393 1198" fill="none" xmlns="http://www.w3.org/2000/svg">
<path d="M-73.5 26L-40.7336 80.3194C2.77206 152.442 97.548 173.879 167.858 127.501L177.604 121.071C195.474 109.283 216.411 103 237.819 103H241.428C286.52 103 326.513 131.958 340.587 174.797C353.836 215.128 341.339 259.465 308.977 286.939L306.102 289.38C281.029 310.666 247.745 319.613 215.379 313.767L180.6 307.486C173.726 306.245 166.709 305.993 159.764 306.74L158.761 306.848C122.138 310.783 94.3713 341.694 94.3713 378.527V378.527C94.3713 410.285 115.152 438.302 145.543 447.518L148.899 448.535C195.043 462.528 217.038 515.076 194.621 557.766L188.113 570.159C161.862 620.151 194.74 680.792 250.958 686.071V686.071C264.429 687.336 277.418 692.069 288.567 699.734V699.734C319.027 720.677 331.536 759.791 318.629 794.429L318.023 796.055C300.89 842.038 247.759 863.126 203.755 841.407L200.878 839.987C185.941 832.615 168.661 831.125 153.215 837.361C139.846 842.758 124.129 850.088 114.734 857.819C75.7128 889.933 73.9527 949.081 110.995 983.458L133.06 1003.93C158.222 1027.29 171.014 1061.06 167.631 1095.22L158 1192.5" stroke="url(#paint0_linear_166_492)" stroke-width="100"/>
<defs>
<linearGradient id="paint0_linear_166_492" x1="50.5" y1="-9.00001" x2="619.324" y2="968.099" gradientUnits="userSpaceOnUse">
<stop stop-color="#26E9AF"/>
<stop offset="0.205" stop-color="#926BCC"/>
<stop offset="0.45" stop-color="#AF4AD4"/>
<stop offset="0.87" stop-color="#452750"/>
<stop offset="0.98" stop-color="#181818"/>
</linearGradient>
</defs>
</svg>
