<svg width="825" height="874" viewBox="0 0 825 874" fill="none" xmlns="http://www.w3.org/2000/svg">
<path d="M-68 29L-16.1568 140.526L17.5 250.5V250.5C65.2058 356.089 211.716 365.01 271.88 265.989L315.105 194.848C349.19 138.749 410.076 104.5 475.718 104.5H603.83C653.409 104.5 697.943 134.824 716.11 180.954V180.954C732.891 223.562 724.109 271.998 693.436 306.001L684.468 315.943C640.71 364.455 635.608 436.531 672.098 490.723L739.284 590.502C762.538 625.038 761.76 670.418 737.334 704.136V704.136C708 744.631 653.117 756.972 609.272 732.933L391.017 613.272C335.896 583.051 267.335 593.741 224.031 639.308V639.308C182.355 683.164 173.964 748.995 203.309 801.901L324 1019.5" stroke="url(#paint0_linear_132_465)" stroke-width="136"/>
<defs>
<linearGradient id="paint0_linear_132_465" x1="2.66908" y1="56.0782" x2="768.639" y2="801.054" gradientUnits="userSpaceOnUse">
<stop stop-color="#26E9AF"/>
<stop offset="0.604652" stop-color="#AF4AD4"/>
</linearGradient>
</defs>
</svg>
