<svg width="825" height="1857" viewBox="0 0 825 1857" fill="none" xmlns="http://www.w3.org/2000/svg">
<path d="M-68 29L-16.1568 140.526L17.5 250.5C65.2058 356.089 211.716 365.01 271.88 265.989L315.105 194.848C349.19 138.749 410.076 104.5 475.718 104.5H603.83C653.409 104.5 697.943 134.824 716.11 180.954C732.891 223.562 724.109 271.998 693.436 306.001L684.468 315.943C640.71 364.455 635.608 436.531 672.098 490.723L739.284 590.502C762.538 625.038 761.76 670.418 737.334 704.136C708 744.631 653.117 756.972 609.272 732.933L391.017 613.272C335.896 583.051 267.335 593.741 224.031 639.308C210.239 653.822 201.136 675.507 195.13 698.028C179.073 758.233 201.639 820.204 235.77 872.334V872.334C273.096 929.343 327.339 973.231 390.883 997.836L504.921 1041.99C547.102 1058.33 596.592 1065.29 626.582 1099.15C652.37 1128.27 660.904 1171.39 642.722 1210.23C623.841 1250.57 580.976 1274 536.829 1268.11L336.48 1241.4C255.476 1230.6 183.5 1293.61 183.5 1375.33C183.5 1440.14 229.517 1495.83 293.168 1508.04L356.243 1520.13C488.078 1545.42 563.868 1684.95 513.318 1809.31L504.5 1831" stroke="url(#paint0_linear_166_461)" stroke-width="136"/>
<defs>
<linearGradient id="paint0_linear_166_461" x1="526.5" y1="1747" x2="79.8232" y2="-20.5434" gradientUnits="userSpaceOnUse">
<stop stop-color="#181818"/>
<stop offset="0.175" stop-color="#562C65"/>
<stop offset="0.52" stop-color="#AF4AD4"/>
<stop offset="0.815" stop-color="#8D71CB"/>
<stop offset="1" stop-color="#26E9AF"/>
</linearGradient>
</defs>
</svg>
