<svg width="393" height="1712" viewBox="0 0 393 1712" fill="none" xmlns="http://www.w3.org/2000/svg">
<path d="M-73.5 26L-40.7336 80.3194C2.77206 152.442 97.548 173.879 167.858 127.501L177.604 121.071C195.474 109.283 216.411 103 237.819 103H241.428C286.52 103 326.513 131.958 340.587 174.797C353.836 215.128 341.339 259.465 308.977 286.939L306.102 289.38C281.029 310.666 247.745 319.613 215.379 313.767L180.6 307.486C173.726 306.245 166.709 305.993 159.764 306.74L158.761 306.848C122.138 310.783 94.3713 341.694 94.3713 378.527V378.527C94.3713 410.285 115.152 438.302 145.543 447.518L148.899 448.535C195.043 462.528 217.038 515.076 194.621 557.766L188.113 570.159C161.862 620.151 194.74 680.792 250.958 686.071V686.071C264.429 687.336 277.418 692.069 288.567 699.734V699.734C319.027 720.677 331.536 759.791 318.629 794.429L316.982 798.851C300.406 843.338 249.003 863.74 206.431 842.728V842.728C187.93 833.596 166.477 831.641 147.499 839.732C141.14 842.443 134.543 845.515 128.543 848.802C118.921 854.073 111.446 862.29 104.946 871.128L103.509 873.083C74.0559 913.129 66.0523 965.05 82.0776 1012.11L88.3436 1030.51C104.749 1078.68 144.921 1114.93 194.522 1126.32L213.165 1130.6C268.981 1143.42 308.542 1193.09 308.542 1250.36V1250.36C308.542 1295.69 283.58 1337.35 243.6 1358.72L179.081 1393.21C126.932 1421.09 94.3713 1475.42 94.3713 1534.56V1545.55C94.3713 1584.91 111.407 1622.34 141.085 1648.19V1648.19C164.706 1668.76 180.507 1696.86 185.823 1727.73L192.5 1766.5" stroke="url(#paint0_linear_166_492)" stroke-width="100"/>
<defs>
<linearGradient id="paint0_linear_166_492" x1="159.5" y1="-7.50002" x2="764.217" y2="1473.91" gradientUnits="userSpaceOnUse">
<stop offset="0.055" stop-color="#26E9AF"/>
<stop offset="0.155" stop-color="#8A3EA6"/>
<stop offset="0.38" stop-color="#AF4AD4"/>
<stop offset="0.61" stop-color="#181818"/>
<stop offset="0.833333" stop-color="#AF4AD4"/>
<stop offset="1" stop-color="#26E9AF"/>
</linearGradient>
</defs>
</svg>
