<svg width="1490" height="1622" viewBox="0 0 1490 1622" fill="none" xmlns="http://www.w3.org/2000/svg">
<g filter="url(#filter0_d_164_430)">
<path d="M-122.85 51.0563L-78.7864 111.743C-45.5756 157.483 -16.4195 206.034 8.34987 256.843L56.9578 356.552C79.328 402.439 110.297 443.607 148.184 477.822L167.174 494.972C207.922 531.77 257.827 556.916 311.648 567.767L350.665 575.634C390.469 583.659 431.803 578.5 468.413 560.937L488.216 551.437C532.978 529.963 563.813 487.274 570.13 438.03C575.176 398.697 564.055 358.999 539.31 328.011L511.759 293.511C463.306 232.836 477.459 143.646 542.316 100.951C578.169 77.3485 623.263 72.6604 663.205 88.3828L735.926 117.008C768.27 129.74 802.72 136.276 837.479 136.276H874.078C918.288 136.276 961.762 124.951 1000.35 103.381C1047 77.3055 1100.58 66.3117 1153.73 71.9091L1163.97 72.9867C1203.34 77.1335 1241.3 90.0138 1275.06 110.689C1319.35 137.806 1354.74 177.288 1376.86 224.269L1381.7 234.531C1400.78 275.052 1410.67 319.288 1410.67 364.077V391.345C1410.67 414.318 1407.04 437.147 1399.89 458.982L1397.76 465.498C1379.92 520.036 1339.74 564.421 1287.24 587.586C1234.51 610.853 1174.35 610.505 1121.89 586.629L1045.97 552.073C973.762 519.21 888.931 532.429 830.15 585.703C780.451 630.744 756.82 697.813 767.308 764.06C771.939 811.909 792.131 875.631 819.939 914.844L836.73 938.522C856.171 965.935 883.045 987.216 914.184 999.856C959.215 1018.13 1009.8 1017 1053.96 996.726L1149.86 952.701C1210.97 924.646 1282.91 935.507 1333.01 980.355C1376.53 1019.31 1396.84 1077.98 1386.72 1135.51L1382.86 1157.45C1369.95 1230.83 1318.95 1291.79 1248.99 1317.45L1218.99 1328.46C1165.25 1348.17 1105.22 1339.8 1058.93 1306.13L1053.48 1302.17C996.068 1260.41 918.193 1260.77 861.165 1303.05C761.796 1376.71 619.835 1316.73 603.383 1194.14L593.59 1121.16C592.236 1111.07 590.135 1101.09 587.305 1091.31L571.495 1036.67C553.749 975.342 510.018 924.872 451.841 898.578C409.57 879.473 362.308 874.347 316.924 883.944L284.636 890.771C243.09 899.557 205.667 921.963 178.303 954.435C149.333 988.812 133.445 1032.32 133.445 1077.28V1103.97C133.445 1163.05 153.281 1220.42 189.773 1266.88L307.951 1417.34C343.974 1463.2 350.665 1542.68 350.665 1601" stroke="url(#paint0_linear_164_430)" stroke-width="136"/>
</g>
<defs>
<filter id="filter0_d_164_430" x="-188.975" y="0.385351" width="1678.75" height="1620.71" filterUnits="userSpaceOnUse" color-interpolation-filters="sRGB">
<feFlood flood-opacity="0" result="BackgroundImageFix"/>
<feColorMatrix in="SourceAlpha" type="matrix" values="0 0 0 0 0 0 0 0 0 0 0 0 0 0 0 0 0 0 127 0" result="hardAlpha"/>
<feOffset dy="9"/>
<feGaussianBlur stdDeviation="5.55"/>
<feComposite in2="hardAlpha" operator="out"/>
<feColorMatrix type="matrix" values="0 0 0 0 0 0 0 0 0 0 0 0 0 0 0 0 0 0 0.42 0"/>
<feBlend mode="normal" in2="BackgroundImageFix" result="effect1_dropShadow_164_430"/>
<feBlend mode="normal" in="SourceGraphic" in2="effect1_dropShadow_164_430" result="shape"/>
</filter>
<linearGradient id="paint0_linear_164_430" x1="1070" y1="1577" x2="806.439" y2="-59.6411" gradientUnits="userSpaceOnUse">
<stop stop-color="#181818"/>
<stop offset="0.208253" stop-color="#603072"/>
<stop offset="0.506903" stop-color="#AF4AD4"/>
<stop offset="0.776122" stop-color="#A951D2"/>
<stop offset="1" stop-color="#26E9AF"/>
</linearGradient>
</defs>
</svg>
